<?xml version="1.0" encoding="iso-8859-1"?>
<!-- Generator: Adobe Illustrator 19.0.0, SVG Export Plug-In . SVG Version: 6.00 Build 0)  -->
<svg xmlns="http://www.w3.org/2000/svg" xmlns:xlink="http://www.w3.org/1999/xlink" version="1.1" id="Layer_1" x="0px" y="0px" viewBox="0 0 512 512" style="enable-background:new 0 0 512 512;" xml:space="preserve" width="512px" height="512px">
<g>
	<g>
		<path d="M277.558,161.684H169.768c-4.466,0-8.084,3.62-8.084,8.084s3.619,8.084,8.084,8.084h107.789    c4.466,0,8.084-3.62,8.084-8.084S282.024,161.684,277.558,161.684z" fill="#FFFFFF"/>
	</g>
</g>
<g>
	<g>
		<path d="M342.232,161.684h-21.558c-4.466,0-8.084,3.62-8.084,8.084s3.618,8.084,8.084,8.084h21.558    c4.466,0,8.084-3.62,8.084-8.084S346.697,161.684,342.232,161.684z" fill="#FFFFFF"/>
	</g>
</g>
<g>
	<g>
		<path d="M212.884,226.358h-43.116c-4.466,0-8.084,3.62-8.084,8.084c0,4.465,3.619,8.084,8.084,8.084h43.116    c4.466,0,8.084-3.62,8.084-8.084C220.968,229.977,217.35,226.358,212.884,226.358z" fill="#FFFFFF"/>
	</g>
</g>
<g>
	<g>
		<path d="M320.674,226.358H256c-4.466,0-8.084,3.62-8.084,8.084c0,4.465,3.619,8.084,8.084,8.084h64.674    c4.466,0,8.084-3.62,8.084-8.084C328.758,229.977,325.139,226.358,320.674,226.358z" fill="#FFFFFF"/>
	</g>
</g>
<g>
	<g>
		<path d="M299.116,291.032H169.768c-4.466,0-8.084,3.62-8.084,8.084s3.619,8.084,8.084,8.084h129.347    c4.466,0,8.084-3.62,8.084-8.084S303.582,291.032,299.116,291.032z" fill="#FFFFFF"/>
	</g>
</g>
<g>
	<g>
		<circle cx="256" cy="51.2" r="10.779" fill="#FFFFFF"/>
	</g>
</g>
<g>
	<g>
		<path d="M404.685,53.895h-59.056c-6.789-12.809-20.256-21.558-35.734-21.558h-6.279C295.983,13.017,277.222,0,256,0    s-39.983,13.017-47.616,32.337h-6.279c-15.479,0-28.946,8.749-35.734,21.558h-59.056c-23.513,0-42.641,19.129-42.641,42.641    v372.822c0,23.512,19.128,42.642,42.641,42.642h297.37c23.512,0,42.641-19.129,42.641-42.642V96.536    C447.326,73.024,428.198,53.895,404.685,53.895z M202.105,48.505h12.137c3.689,0,6.909-2.496,7.829-6.069    C226.053,26.97,240.005,16.168,256,16.168s29.947,10.802,33.93,26.268c0.919,3.572,4.14,6.069,7.829,6.069h12.137    c13.372,0,24.253,10.879,24.253,24.253c0,13.373-10.881,24.253-24.254,24.253H202.105c-13.372,0-24.253-10.879-24.253-24.253    C177.853,59.384,188.733,48.505,202.105,48.505z M431.158,469.358c0,14.597-11.876,26.473-26.473,26.473h-297.37    c-14.597,0-26.473-11.876-26.473-26.473V96.536c0-14.597,11.876-26.473,26.473-26.473h54.469c-0.059,0.891-0.1,1.788-0.1,2.695    c0,22.289,18.132,40.421,40.421,40.421h107.789c22.289,0,40.421-18.132,40.421-40.421c0-0.907-0.041-1.803-0.1-2.695h54.469    c14.597,0,26.473,11.876,26.473,26.473V469.358z" fill="#FFFFFF"/>
	</g>
</g>
<g>
	<g>
		<path d="M315.858,452.716h-94.889v-73.714c0-12.867-10.431-23.297-23.297-23.297h-73.714V120.384c0-3.979,3.225-7.205,7.205-7.205    h17.048c4.548,0,8.218-3.754,8.081-8.333c-0.133-4.425-3.992-7.835-8.419-7.835h-16.71c-12.909,0-23.373,10.464-23.373,23.373    v325.128c0,12.909,10.464,23.373,23.373,23.373h184.695c4.465,0,8.084-3.62,8.084-8.084    C323.942,456.335,320.322,452.716,315.858,452.716z M197.671,371.874c3.93,0,7.128,3.197,7.128,7.128v62.281l-69.409-69.409    H197.671z M131.163,452.716c-3.973,0-7.205-3.233-7.205-7.205v-62.204l69.409,69.409H131.163z" fill="#FFFFFF"/>
	</g>
</g>
<g>
	<g>
		<path d="M380.837,97.011h-17.048c-4.548,0-8.218,3.754-8.081,8.333c0.133,4.425,3.992,7.835,8.419,7.835h16.71    c3.979,0,7.205,3.226,7.205,7.205v325.128c0,3.979-3.225,7.205-7.205,7.205h-29.335c-4.465,0-8.084,3.62-8.084,8.084    c0,4.465,3.62,8.084,8.084,8.084h29.335c12.909,0,23.373-10.464,23.373-23.373V120.384    C404.211,107.475,393.746,97.011,380.837,97.011z" fill="#FFFFFF"/>
	</g>
</g>
<g>
</g>
<g>
</g>
<g>
</g>
<g>
</g>
<g>
</g>
<g>
</g>
<g>
</g>
<g>
</g>
<g>
</g>
<g>
</g>
<g>
</g>
<g>
</g>
<g>
</g>
<g>
</g>
<g>
</g>
</svg>
